<?xml version="1.0" standalone="no"?>
<!DOCTYPE svg PUBLIC "-//W3C//DTD SVG 20010904//EN"
 "http://www.w3.org/TR/2001/REC-SVG-20010904/DTD/svg10.dtd">
<svg version="1.0" xmlns="http://www.w3.org/2000/svg"
 width="16.000000pt" height="16.000000pt" viewBox="0 0 16.000000 16.000000"
 preserveAspectRatio="xMidYMid meet">
<metadata>
Created by potrace 1.11, written by Peter Selinger 2001-2013
</metadata>
<g transform="translate(0.000000,16.000000) scale(0.003960,-0.003960)"
fill="#000000" stroke="none">
<path d="M1845 4024 c-16 -2 -71 -9 -122 -15 -106 -12 -321 -66 -419 -105
-238 -93 -511 -263 -654 -406 l-34 -33 115 -6 c290 -16 497 -132 594 -334 47
-97 59 -175 57 -365 -2 -236 3 -289 36 -339 38 -59 100 -83 227 -88 55 -3 118
0 140 6 64 16 135 43 135 50 0 4 -16 23 -36 42 -49 46 -117 144 -137 197 -48
122 -12 186 208 372 212 180 282 272 306 404 17 96 -13 251 -72 369 -37 73
-112 188 -140 213 -10 9 -19 22 -19 28 0 15 94 -79 146 -145 161 -208 191
-469 77 -669 -38 -66 -91 -128 -239 -281 -100 -103 -135 -146 -144 -176 -26
-85 11 -157 142 -276 65 -59 98 -81 136 -92 28 -9 58 -23 67 -31 9 -9 18 -14
20 -12 3 2 7 36 11 74 13 157 65 268 146 310 41 21 168 17 339 -11 215 -35
360 -34 449 3 133 55 275 244 325 432 39 147 38 139 8 179 -27 37 -169 181
-233 237 -48 42 -202 155 -220 162 -8 3 -17 8 -20 12 -14 19 -271 150 -293
150 -7 0 -17 4 -22 9 -15 15 -226 79 -333 101 -164 33 -418 49 -547 34z"/>
<path d="M542 3388 c-154 -160 -327 -444 -405 -666 -69 -193 -117 -437 -117
-589 l0 -56 57 54 c279 264 588 296 847 90 33 -27 117 -107 186 -179 69 -71
141 -138 160 -147 87 -45 179 -7 300 122 53 57 80 95 89 125 7 24 17 48 23 55
7 8 -9 13 -59 18 -97 9 -196 31 -242 55 -79 40 -117 128 -107 245 3 33 10 117
17 187 15 168 8 317 -19 386 -68 176 -268 302 -557 351 l-107 18 -66 -69z"/>
<path d="M3546 3200 c-8 -88 -49 -229 -89 -305 -37 -71 -152 -190 -219 -227
-127 -70 -231 -83 -485 -61 -158 14 -202 14 -247 4 -105 -23 -150 -114 -149
-301 0 -111 23 -210 47 -210 7 0 21 10 32 21 30 34 133 101 186 121 58 22 139
23 177 3 42 -21 154 -147 225 -250 83 -123 205 -244 281 -281 51 -25 74 -29
163 -32 73 -3 124 1 175 12 79 19 283 114 312 146 16 18 18 40 18 202 -1 327
-58 582 -193 863 -55 113 -155 277 -205 337 l-22 26 -7 -68z"/>
<path d="M455 2285 c-123 -23 -248 -81 -367 -167 l-71 -52 6 -120 c19 -391
153 -759 393 -1079 50 -67 101 -131 113 -141 l21 -19 0 60 c0 78 40 234 82
320 40 82 157 205 235 246 107 57 182 68 448 65 233 -2 241 -2 280 20 77 44
105 119 105 285 0 78 -4 99 -25 141 -14 27 -25 55 -25 63 0 21 -9 16 -75 -45
-109 -99 -229 -142 -308 -109 -46 20 -122 91 -200 187 -69 85 -82 100 -163
189 -62 67 -131 117 -199 143 -60 23 -169 29 -250 13z"/>
<path d="M2632 2119 c-58 -23 -242 -181 -242 -208 0 -9 -9 -35 -20 -58 l-19
-42 47 -6 c167 -20 240 -46 305 -111 57 -57 58 -99 12 -434 -37 -267 -6 -393
125 -520 88 -84 252 -163 405 -194 27 -6 38 1 106 66 259 249 430 521 533 848
38 119 84 336 74 346 -4 3 -28 -12 -54 -35 -57 -50 -191 -116 -277 -136 -82
-20 -219 -19 -288 1 -132 39 -222 112 -457 371 -46 50 -99 99 -117 107 -36 18
-97 20 -133 5z"/>
<path d="M2270 1689 c-30 -4 -68 -14 -85 -23 -16 -9 -38 -16 -47 -16 -29 0
-28 -14 4 -50 45 -53 113 -161 126 -199 7 -19 12 -53 12 -77 0 -98 -32 -132
-326 -357 -88 -67 -170 -160 -207 -237 -31 -62 -32 -70 -31 -180 1 -134 25
-224 97 -351 68 -122 67 -120 140 -126 192 -16 602 60 787 144 92 43 219 105
255 125 38 22 172 115 223 156 l24 18 -74 14 c-249 44 -409 155 -500 347 -43
90 -50 165 -43 433 6 233 6 235 -17 280 -31 60 -90 88 -200 98 -46 4 -108 4
-138 1z"/>
<path d="M1816 1658 c-3 -13 -6 -41 -6 -63 0 -48 -23 -143 -47 -193 -29 -60
-76 -99 -137 -113 -48 -10 -83 -9 -244 9 -295 34 -393 28 -504 -30 -141 -75
-272 -295 -307 -516 l-8 -55 41 -45 c129 -140 419 -341 586 -406 25 -10 59
-24 75 -31 111 -52 376 -118 523 -131 l74 -7 -52 64 c-106 131 -168 310 -157
455 6 88 43 194 90 265 33 50 202 224 306 315 60 53 101 119 101 164 0 99
-139 265 -265 316 -33 13 -61 24 -61 24 -1 0 -4 -10 -8 -22z"/>
</g>
</svg>
